<?xml version="1.0" encoding="utf-8"?>
<!-- Generator: Adobe Illustrator 19.0.0, SVG Export Plug-In . SVG Version: 6.00 Build 0)  -->
<svg version="1.1" id="Layer_1" xmlns="http://www.w3.org/2000/svg" xmlns:xlink="http://www.w3.org/1999/xlink" x="0px" y="0px"
	 viewBox="-733.6 283 192 192" style="enable-background:new -733.6 283 192 192;" xml:space="preserve">
<style type="text/css">
	.st0{fill:#FFFFFF;}
	.st1{fill:none;stroke:#07528D;stroke-width:3.7054;stroke-miterlimit:10;}
	.st2{fill:none;stroke:#224099;stroke-width:3.7054;stroke-miterlimit:10;}
	.st3{fill:#D4A81E;stroke:#07528D;stroke-width:3.7054;stroke-miterlimit:10;}
	.st4{fill:#FFFFFF;stroke:#224099;stroke-width:3.7054;stroke-miterlimit:10;}
</style>
<rect x="-733.6" y="283" class="st0" width="192" height="192"/>
<g id="XMLID_63_">
	<path id="XMLID_163_" class="st1" d="M-557.7,382.1l-22.3-1.9v-40.7h-11.7c-11.3-20.1-32.8-33.5-57.5-33.5
		c-36.4,0-66.1,29.5-66.1,66.1c0,2.6,0.2,5.3,0.5,7.9l-8.4,11.7h170.8C-552.4,391.7-549.8,388.6-557.7,382.1z"/>
	<line id="XMLID_157_" class="st2" x1="-591.7" y1="339.7" x2="-591.7" y2="354.1"/>
	<rect id="XMLID_155_" x="-668.6" y="363.7" class="st3" width="30.9" height="28.3"/>
	<path id="XMLID_154_" class="st1" d="M-608.7,345c-9.3-16.8-27.8-27.1-46.9-25.1c-16,1.4-29.9,11.3-37.8,25.1"/>
	<rect id="XMLID_153_" x="-711" y="391.7" class="st3" width="120" height="8.1"/>
	<polygon id="XMLID_121_" class="st3" points="-626.4,399.8 -643.9,413.7 -651.1,413.7 -658.3,413.7 -675.8,399.8 -689.9,399.8 
		-659,424.5 -659,452.1 -643.2,452.1 -643.2,424.5 -612.3,399.8 	"/>
	<rect id="XMLID_120_" x="-659" y="439.8" class="st4" width="15.8" height="12.2"/>
	<line id="XMLID_66_" class="st1" x1="-651.1" y1="439.8" x2="-651.1" y2="445.8"/>
</g>
</svg>
