<?xml version="1.0" encoding="utf-8"?>
<!-- Generator: Adobe Illustrator 19.0.0, SVG Export Plug-In . SVG Version: 6.00 Build 0)  -->
<svg version="1.1" id="Layer_1" xmlns="http://www.w3.org/2000/svg" xmlns:xlink="http://www.w3.org/1999/xlink" x="0px" y="0px"
	 viewBox="-743.9 382 267 48" style="enable-background:new -743.9 382 267 48;" xml:space="preserve">
<style type="text/css">
	.st0{fill:#FFFFFF;}
</style>
<g>
	<g id="XMLID_63_">
		<g id="XMLID_163_">
			<path class="st0" d="M-683.2,413.9h-54.5l3.1-4.4c-0.1-0.8-0.1-1.5-0.1-2.3c0-11.6,9.5-21.1,21.1-21.1c7.5,0,14.5,4,18.2,10.4
				h3.9v12.7l6.6,0.6l0.1,0.1c1.2,1,1.9,1.9,2,2.8c0.1,0.6-0.2,0.9-0.3,1L-683.2,413.9z M-735.4,412.7h51.5c0-0.3-0.3-0.9-1.4-1.8
				l-7.3-0.6v-12.6h-3.4l-0.2-0.3c-3.5-6.2-10.1-10.1-17.4-10.1c-11,0-20,9-20,20c0,0.8,0.1,1.6,0.1,2.4l0,0.2l-0.1,0.2
				L-735.4,412.7z"/>
		</g>
		<g id="XMLID_157_">
			<rect x="-696.2" y="397.2" class="st0" width="1.2" height="4.5"/>
		</g>
		<g id="XMLID_155_">
			<rect x="-719.6" y="404.6" class="st0" width="9.6" height="8.8"/>
			<path class="st0" d="M-709.4,414h-10.8V404h10.8V414z M-719,412.8h8.4v-7.6h-8.4V412.8z"/>
		</g>
		<g id="XMLID_154_">
			<path class="st0" d="M-726.8,399.1l-1-0.6c2.6-4.6,7.2-7.7,12.2-8.1c6.1-0.6,12.1,2.6,15.1,8.1l-1,0.6c-2.9-5.1-8.4-8.1-14-7.5
				C-720.1,392-724.4,394.8-726.8,399.1z"/>
		</g>
		<g id="XMLID_153_">
			<rect x="-732.7" y="413.3" class="st0" width="37.3" height="2.5"/>
			<path class="st0" d="M-694.9,416.4h-38.4v-3.7h38.4V416.4z M-732.2,415.3h36.1v-1.4h-36.1V415.3z"/>
		</g>
		<g id="XMLID_121_">
			<polygon class="st0" points="-706.5,415.9 -711.9,420.2 -714.1,420.2 -716.4,420.2 -721.8,415.9 -726.2,415.9 -716.6,423.5 
				-716.6,432.1 -711.7,432.1 -711.7,423.5 -702.1,415.9 			"/>
			<path class="st0" d="M-711.1,432.7h-6.1v-8.9l-10.7-8.5h6.2l5.4,4.3h4.1l5.4-4.3h6.2l-10.7,8.5V432.7z M-716,431.5h3.8v-8.3
				l8.5-6.8h-2.5l-5.4,4.3h-4.9l-5.4-4.3h-2.5l8.5,6.8V431.5z"/>
		</g>
		<g id="XMLID_120_">
			<rect x="-716.6" y="428.3" class="st0" width="4.9" height="3.8"/>
			<path class="st0" d="M-711.1,432.7h-6.1v-4.9h6.1V432.7z M-716,431.5h3.8v-2.6h-3.8V431.5z"/>
		</g>
		<g id="XMLID_66_">
			<rect x="-714.7" y="428.3" class="st0" width="1.2" height="1.9"/>
		</g>
	</g>
	<g>
		<g>
			<path class="st0" d="M-670.6,396.7h-4.1v-2.2h10.9v2.2h-4.2v12.2h-2.6L-670.6,396.7L-670.6,396.7z"/>
		</g>
		<g>
			<path class="st0" d="M-659.5,394.5v5.8h6.1v-5.8h2.6v14.4h-2.6v-6.4h-6.1v6.4h-2.6v-14.4H-659.5z"/>
		</g>
		<g>
			<path class="st0" d="M-639.6,402.5h-5.4v4.2h6.1v2.2h-8.7v-14.4h8.4v2.2h-5.7v3.7h5.4L-639.6,402.5L-639.6,402.5z"/>
		</g>
		<g>
			<path class="st0" d="M-630.3,396.7h-4.1v-2.2h10.9v2.2h-4.2v12.2h-2.6V396.7z"/>
		</g>
		<g>
			<path class="st0" d="M-621.8,394.7c1-0.1,2.5-0.3,4-0.3c2.1,0,3.5,0.4,4.5,1.2c0.8,0.7,1.3,1.6,1.3,2.9c0,1.9-1.3,3.1-2.6,3.6
				v0.1c1,0.4,1.6,1.4,2,2.8c0.4,1.8,0.8,3.5,1.1,4h-2.8c-0.2-0.4-0.5-1.6-1-3.4c-0.4-1.9-1.1-2.5-2.6-2.5h-1.3v6h-2.6V394.7z
				 M-619.2,401.1h1.6c1.8,0,2.9-1,2.9-2.4c0-1.6-1.1-2.3-2.8-2.3c-0.8,0-1.3,0.1-1.6,0.1V401.1z"/>
		</g>
		<g>
			<path class="st0" d="M-606.7,404.8l-1.3,4.1h-2.7l4.6-14.4h3.3l4.7,14.4h-2.8l-1.3-4.1C-602.1,404.8-606.7,404.8-606.7,404.8z
				 M-602.5,402.9l-1.1-3.6c-0.3-0.9-0.5-1.9-0.7-2.7h-0.1c-0.2,0.8-0.4,1.9-0.7,2.7l-1.1,3.6H-602.5z"/>
		</g>
		<g>
			<path class="st0" d="M-595.9,408.9v-14.4h3l3.7,6.2c1,1.6,1.8,3.3,2.5,4.8h0.1c-0.1-1.9-0.2-3.8-0.2-6v-5.1h2.5v14.4h-2.8
				l-3.8-6.3c-0.9-1.6-1.9-3.3-2.6-5h-0.1c0.1,1.9,0.1,3.8,0.1,6.2v5.1L-595.9,408.9L-595.9,408.9z"/>
		</g>
		<g>
			<path class="st0" d="M-581.4,406.1c0.9,0.5,2.2,0.9,3.5,0.9c1.7,0,2.6-0.8,2.6-1.9c0-1.1-0.7-1.7-2.6-2.4
				c-2.4-0.9-3.9-2.2-3.9-4.2c0-2.4,1.9-4.2,5.1-4.2c1.6,0,2.8,0.4,3.5,0.7l-0.7,2.2c-0.5-0.3-1.5-0.7-2.9-0.7
				c-1.6,0-2.4,0.9-2.4,1.7c0,1.1,0.8,1.6,2.8,2.4c2.5,1,3.7,2.2,3.7,4.3c0,2.3-1.8,4.3-5.5,4.3c-1.5,0-3.1-0.4-3.9-0.9
				L-581.4,406.1z"/>
		</g>
		<g>
			<path class="st0" d="M-558.1,403.1c-0.1-1.9-0.2-4.1-0.1-6h-0.1c-0.4,1.8-1,3.7-1.7,5.5l-2.1,6.3h-2l-1.9-6.2
				c-0.5-1.9-1-3.8-1.5-5.6h-0.1c-0.1,1.9-0.1,4.2-0.2,6.2l-0.3,5.8h-2.5l1-14.4h3.5l1.9,5.8c0.5,1.7,1,3.4,1.3,5h0.1
				c0.4-1.6,0.9-3.3,1.4-5.1l2-5.8h3.4l0.8,14.4h-2.6L-558.1,403.1z"/>
		</g>
		<g>
			<path class="st0" d="M-549.9,394.5v14.4h-2.6v-14.4H-549.9z"/>
		</g>
		<g>
			<path class="st0" d="M-547,406.1c0.9,0.5,2.2,0.9,3.5,0.9c1.7,0,2.6-0.8,2.6-1.9c0-1.1-0.7-1.7-2.6-2.4c-2.4-0.9-3.9-2.2-3.9-4.2
				c0-2.4,1.9-4.2,5.1-4.2c1.6,0,2.8,0.4,3.5,0.7l-0.7,2.2c-0.5-0.3-1.5-0.7-2.9-0.7c-1.6,0-2.4,0.9-2.4,1.7c0,1.1,0.8,1.6,2.8,2.4
				c2.5,1,3.7,2.2,3.7,4.3c0,2.3-1.8,4.3-5.5,4.3c-1.5,0-3.1-0.4-3.9-0.9L-547,406.1z"/>
		</g>
		<g>
			<path class="st0" d="M-535.8,406.1c0.9,0.5,2.2,0.9,3.5,0.9c1.7,0,2.6-0.8,2.6-1.9c0-1.1-0.7-1.7-2.6-2.4
				c-2.4-0.9-3.9-2.2-3.9-4.2c0-2.4,1.9-4.2,5.1-4.2c1.6,0,2.8,0.4,3.5,0.7l-0.7,2.2c-0.5-0.3-1.5-0.7-2.9-0.7
				c-1.6,0-2.4,0.9-2.4,1.7c0,1.1,0.8,1.6,2.8,2.4c2.5,1,3.7,2.2,3.7,4.3c0,2.3-1.8,4.3-5.5,4.3c-1.5,0-3.1-0.4-3.9-0.9
				L-535.8,406.1z"/>
		</g>
		<g>
			<path class="st0" d="M-522,394.5v14.4h-2.6v-14.4H-522z"/>
		</g>
		<g>
			<path class="st0" d="M-506.2,401.6c0,4.8-2.9,7.6-6.9,7.6c-4.1,0-6.6-3.1-6.6-7.4c0-4.5,2.8-7.6,6.8-7.6
				C-508.6,394.3-506.2,397.5-506.2,401.6z M-517,401.8c0,2.9,1.5,5.3,4,5.3c2.5,0,4-2.4,4-5.4c0-2.8-1.3-5.3-4-5.3
				C-515.6,396.4-517,398.8-517,401.8z"/>
		</g>
		<g>
			<path class="st0" d="M-503.9,408.9v-14.4h3l3.7,6.2c1,1.6,1.8,3.3,2.5,4.8h0.1c-0.1-1.9-0.2-3.8-0.2-6v-5.1h2.5v14.4h-2.8
				l-3.8-6.3c-0.9-1.6-1.9-3.3-2.6-5h-0.1c0.1,1.9,0.1,3.8,0.1,6.2v5.1L-503.9,408.9L-503.9,408.9z"/>
		</g>
	</g>
	<g>
		<g>
			<path class="st0" d="M-669.3,418.8h1.3v9.5h4.5v1.1h-5.9V418.8z"/>
		</g>
		<g>
			<path class="st0" d="M-657,425.9c0,1.9,1.2,2.7,2.6,2.7c1,0,1.6-0.1,2.1-0.4l0.2,1c-0.5,0.2-1.3,0.4-2.5,0.4
				c-2.4,0-3.7-1.6-3.7-3.9c0-2.3,1.3-4.1,3.6-4.1c2.5,0,3.1,2.2,3.1,3.6c0,0.3,0,0.5-0.1,0.7C-651.7,425.9-657,425.9-657,425.9z
				 M-653,424.9c0-0.9-0.4-2.2-1.9-2.2c-1.4,0-2,1.3-2.2,2.2H-653z"/>
		</g>
		<g>
			<path class="st0" d="M-641.3,429.5l-0.1-1h-0.1c-0.4,0.6-1.3,1.1-2.3,1.1c-1.6,0-2.3-1.1-2.3-2.2c0-1.9,1.6-2.8,4.6-2.8v-0.1
				c0-0.6-0.1-1.8-1.7-1.8c-0.7,0-1.4,0.2-2,0.6l-0.3-0.9c0.6-0.4,1.6-0.7,2.5-0.7c2.3,0,2.9,1.6,2.9,3.1v2.8c0,0.7,0,1.3,0.1,1.9
				L-641.3,429.5L-641.3,429.5z M-641.5,425.6c-1.5,0-3.2,0.2-3.2,1.7c0,0.9,0.6,1.3,1.3,1.3c1,0,1.6-0.6,1.9-1.3
				c0.1-0.1,0.1-0.3,0.1-0.4L-641.5,425.6L-641.5,425.6z"/>
		</g>
		<g>
			<path class="st0" d="M-633.5,424.2c0-0.9,0-1.6-0.1-2.4h1.2l0.1,1.5h0.1c0.4-1,1.2-1.6,2.1-1.6c0.1,0,0.3,0,0.4,0.1v1.3
				c-0.1,0-0.3-0.1-0.4-0.1c-1,0-1.6,0.7-1.9,1.8c0,0.2-0.1,0.4-0.1,0.7v4.1h-1.3V424.2z"/>
		</g>
		<g>
			<path class="st0" d="M-623.8,423.9c0-0.8,0-1.4-0.1-2.1h1.2l0.1,1.3l0,0c0.4-0.7,1.3-1.4,2.5-1.4c1,0,2.7,0.6,2.7,3.3v4.5h-1.3
				v-4.4c0-1.3-0.4-2.2-1.8-2.2c-0.9,0-1.6,0.7-1.9,1.4c-0.1,0.1-0.1,0.4-0.1,0.7v4.6h-1.4L-623.8,423.9L-623.8,423.9z"/>
		</g>
		<g>
			<path class="st0" d="M-609.2,419.7c0,0.4-0.3,0.8-0.9,0.8c-0.5,0-0.8-0.4-0.8-0.8c0-0.5,0.4-0.9,0.9-0.9
				S-609.2,419.2-609.2,419.7z M-610.7,429.5v-7.7h1.4v7.6L-610.7,429.5L-610.7,429.5z"/>
		</g>
		<g>
			<path class="st0" d="M-602.6,423.9c0-0.8,0-1.4-0.1-2.1h1.2l0.1,1.3l0,0c0.4-0.7,1.3-1.4,2.5-1.4c1,0,2.7,0.6,2.7,3.3v4.5h-1.4
				v-4.4c0-1.3-0.4-2.2-1.8-2.2c-0.9,0-1.6,0.7-1.9,1.4c-0.1,0.1-0.1,0.4-0.1,0.7v4.6h-1.4v-5.7H-602.6z"/>
		</g>
		<g>
			<path class="st0" d="M-582.9,421.8c0,0.5-0.1,1.2-0.1,2.1v4.4c0,1.7-0.4,2.8-1.1,3.5c-0.7,0.7-1.8,0.9-2.8,0.9
				c-0.9,0-1.9-0.2-2.5-0.6l0.4-1c0.5,0.3,1.3,0.6,2.2,0.6c1.4,0,2.5-0.7,2.5-2.7v-0.8l0,0c-0.4,0.7-1.3,1.3-2.5,1.3
				c-1.9,0-3.3-1.6-3.3-3.7c0-2.6,1.7-4,3.4-4c1.3,0,2,0.7,2.4,1.3l0,0l0.1-1.1L-582.9,421.8L-582.9,421.8z M-584.3,424.9
				c0-0.2,0-0.4-0.1-0.6c-0.2-0.8-0.9-1.5-1.9-1.5c-1.3,0-2.2,1.1-2.2,2.9c0,1.5,0.7,2.8,2.2,2.8c0.8,0,1.6-0.5,1.9-1.4
				c0.1-0.2,0.1-0.5,0.1-0.7V424.9z"/>
		</g>
		<g>
			<path class="st0" d="M-568.5,419c0.7-0.1,1.6-0.2,2.6-0.2c1.3,0,2.4,0.3,3,0.9c0.6,0.5,0.9,1.3,0.9,2.2s-0.3,1.7-0.8,2.2
				c-0.7,0.7-1.9,1.2-3.3,1.2c-0.4,0-0.8,0-1.1-0.1v4.2h-1.3L-568.5,419L-568.5,419z M-567.1,424.1c0.3,0.1,0.7,0.1,1.1,0.1
				c1.6,0,2.7-0.8,2.7-2.2c0-1.4-1-2.1-2.5-2.1c-0.6,0-1,0.1-1.3,0.1L-567.1,424.1L-567.1,424.1z"/>
		</g>
		<g>
			<path class="st0" d="M-555.8,418.3h1.4v11.2h-1.4V418.3z"/>
		</g>
		<g>
			<path class="st0" d="M-543.5,429.5l-0.1-1h-0.1c-0.4,0.6-1.3,1.1-2.3,1.1c-1.6,0-2.3-1.1-2.3-2.2c0-1.9,1.6-2.8,4.6-2.8v-0.1
				c0-0.6-0.1-1.8-1.7-1.8c-0.7,0-1.4,0.2-2,0.6l-0.3-0.9c0.6-0.4,1.6-0.7,2.5-0.7c2.3,0,2.9,1.6,2.9,3.1v2.8c0,0.7,0,1.3,0.1,1.9
				L-543.5,429.5L-543.5,429.5z M-543.7,425.6c-1.5,0-3.2,0.2-3.2,1.7c0,0.9,0.6,1.3,1.3,1.3c1,0,1.6-0.6,1.9-1.3
				c0.1-0.1,0.1-0.3,0.1-0.4L-543.7,425.6L-543.7,425.6z"/>
		</g>
		<g>
			<path class="st0" d="M-534.1,419.6v2.2h2v1h-2v4.1c0,1,0.3,1.5,1,1.5c0.4,0,0.6-0.1,0.8-0.1l0.1,1c-0.3,0.1-0.7,0.2-1.3,0.2
				c-0.7,0-1.2-0.2-1.5-0.6c-0.4-0.4-0.5-1.1-0.5-2v-4.2h-1.2v-1h1.2v-1.9L-534.1,419.6z"/>
		</g>
		<g>
			<path class="st0" d="M-519.4,425.6c0,2.8-1.9,4-3.8,4c-2.1,0-3.6-1.5-3.6-3.9c0-2.5,1.6-4,3.8-4S-519.4,423.3-519.4,425.6z
				 M-525.4,425.7c0,1.6,1,2.9,2.3,2.9s2.3-1.3,2.3-3c0-1.3-0.7-2.9-2.3-2.9C-524.7,422.7-525.4,424.2-525.4,425.7z"/>
		</g>
		<g>
			<path class="st0" d="M-513.2,424.2c0-0.9,0-1.6-0.1-2.4h1.2l0.1,1.5h0.1c0.4-1,1.2-1.6,2.1-1.6c0.1,0,0.3,0,0.4,0.1v1.3
				c-0.1,0-0.3-0.1-0.4-0.1c-1,0-1.6,0.7-1.9,1.8c0,0.2-0.1,0.4-0.1,0.7v4.1h-1.3V424.2z"/>
		</g>
		<g>
			<path class="st0" d="M-503.6,423.9c0-0.8,0-1.4-0.1-2.1h1.2l0.1,1.2h0.1c0.4-0.7,1.1-1.4,2.4-1.4c1,0,1.9,0.6,2.2,1.6l0,0
				c0.2-0.4,0.5-0.7,0.8-1c0.4-0.4,1-0.5,1.7-0.5c1,0,2.5,0.7,2.5,3.3v4.5h-1.3v-4.3c0-1.5-0.5-2.4-1.6-2.4c-0.8,0-1.4,0.6-1.6,1.3
				c-0.1,0.2-0.1,0.4-0.1,0.7v4.7h-1.3v-4.5c0-1.2-0.5-2.1-1.6-2.1c-0.9,0-1.5,0.7-1.7,1.4c-0.1,0.2-0.1,0.4-0.1,0.7v4.6h-1.3v-5.5
				H-503.6z"/>
		</g>
	</g>
</g>
</svg>
