<?xml version="1.0" encoding="utf-8"?>
<!-- Generator: Adobe Illustrator 19.0.0, SVG Export Plug-In . SVG Version: 6.00 Build 0)  -->
<svg version="1.1" id="Layer_1" xmlns="http://www.w3.org/2000/svg" xmlns:xlink="http://www.w3.org/1999/xlink" x="0px" y="0px"
	 viewBox="-27 0 352.6 73" style="enable-background:new -27 0 352.6 73;" xml:space="preserve">
<style type="text/css">
	.st0{fill:none;stroke:#07528D;stroke-width:1.547;stroke-miterlimit:10;}
	.st1{fill:none;stroke:#224099;stroke-width:1.547;stroke-miterlimit:10;}
	.st2{fill:#D4A81E;stroke:#07528D;stroke-width:1.547;stroke-miterlimit:10;}
	.st3{fill:#FFFFFF;stroke:#224099;stroke-width:1.547;stroke-miterlimit:10;}
	.st4{fill:#07528D;}
	.st5{fill:#D4A81E;}
</style>
<g id="XMLID_15_">
	<g id="XMLID_63_">
		<path id="XMLID_163_" class="st0" d="M50.9,36.5l-9.3-0.8v-17h-4.9c-4.7-8.4-13.7-14-24-14c-15.2,0-27.6,12.3-27.6,27.6
			c0,1.1,0.1,2.2,0.2,3.3l-3.5,4.9h71.3C53.1,40.5,54.2,39.2,50.9,36.5z"/>
		<line id="XMLID_157_" class="st1" x1="36.7" y1="18.8" x2="36.7" y2="24.8"/>
		<rect id="XMLID_155_" x="4.6" y="28.8" class="st2" width="12.9" height="11.8"/>
		<path id="XMLID_154_" class="st0" d="M29.6,21C25.7,14,18,9.7,10,10.5C3.3,11.1-2.5,15.2-5.8,21"/>
		<rect id="XMLID_153_" x="-13.1" y="40.5" class="st2" width="50.1" height="3.4"/>
		<polygon id="XMLID_121_" class="st2" points="22.2,43.9 14.9,49.7 11.9,49.7 8.9,49.7 1.6,43.9 -4.3,43.9 8.6,54.2 8.6,65.7 
			15.2,65.7 15.2,54.2 28.1,43.9 		"/>
		<rect id="XMLID_120_" x="8.6" y="60.6" class="st3" width="6.6" height="5.1"/>
		<line id="XMLID_66_" class="st0" x1="11.9" y1="60.6" x2="11.9" y2="63.1"/>
	</g>
	<g>
		<path class="st4" d="M70.4,18.2h-5.5v-3h14.7v3h-5.6v16.4h-3.5V18.2z"/>
		<path class="st4" d="M85.3,15.2V23h8.2v-7.8h3.5v19.4h-3.5v-8.6h-8.2v8.6h-3.5V15.2H85.3z"/>
		<path class="st4" d="M112,26h-7.3v5.7h8.2v2.9h-11.7V15.2h11.3v2.9h-7.7v5h7.3V26z"/>
		<path class="st4" d="M124.5,18.2h-5.5v-3h14.7v3H128v16.4h-3.5V18.2z"/>
		<path class="st4" d="M135.9,15.5c1.3-0.2,3.3-0.4,5.4-0.4c2.8,0,4.7,0.5,6,1.6c1.1,0.9,1.7,2.2,1.7,3.9c0,2.5-1.7,4.2-3.5,4.9v0.1
			c1.4,0.5,2.2,1.9,2.7,3.7c0.6,2.4,1.1,4.7,1.5,5.4H146c-0.3-0.6-0.7-2.2-1.3-4.6c-0.5-2.5-1.5-3.3-3.5-3.4h-1.8v8h-3.5V15.5z
			 M139.4,24.1h2.1c2.4,0,3.9-1.3,3.9-3.2c0-2.1-1.5-3.1-3.8-3.1c-1.1,0-1.8,0.1-2.2,0.2V24.1z"/>
		<path class="st4" d="M156.3,29.1l-1.7,5.5H151l6.2-19.4h4.5l6.3,19.4h-3.8l-1.8-5.5H156.3z M161.9,26.5l-1.5-4.8
			c-0.4-1.2-0.7-2.5-1-3.6h-0.1c-0.3,1.1-0.6,2.5-0.9,3.6l-1.5,4.8H161.9z"/>
		<path class="st4" d="M170.8,34.6V15.2h4l5,8.3c1.3,2.2,2.4,4.4,3.3,6.5h0.1c-0.2-2.6-0.3-5.1-0.3-8.1v-6.8h3.3v19.4h-3.7l-5.1-8.5
			c-1.2-2.1-2.5-4.5-3.5-6.7l-0.1,0c0.1,2.5,0.2,5.1,0.2,8.3v6.9H170.8z"/>
		<path class="st4" d="M190.2,30.8c1.2,0.7,2.9,1.2,4.7,1.2c2.3,0,3.5-1.1,3.5-2.6c0-1.5-1-2.3-3.5-3.2c-3.2-1.2-5.2-2.9-5.2-5.6
			c0-3.2,2.6-5.6,6.9-5.6c2.1,0,3.7,0.5,4.7,1l-0.9,2.9c-0.7-0.4-2-0.9-3.9-0.9c-2.2,0-3.2,1.2-3.2,2.3c0,1.5,1.1,2.2,3.7,3.2
			c3.4,1.3,5,3,5,5.8c0,3.1-2.4,5.8-7.4,5.8c-2,0-4.2-0.6-5.2-1.2L190.2,30.8z"/>
		<path class="st4" d="M221.6,26.7c-0.1-2.5-0.3-5.5-0.2-8.1h-0.1c-0.6,2.4-1.4,5-2.3,7.4l-2.8,8.4h-2.7l-2.6-8.3
			c-0.7-2.5-1.4-5.1-2-7.5h-0.1c-0.1,2.5-0.2,5.6-0.3,8.3l-0.4,7.8h-3.3l1.3-19.4h4.7l2.5,7.8c0.7,2.3,1.3,4.6,1.8,6.7h0.1
			c0.5-2.1,1.2-4.5,1.9-6.8l2.7-7.8h4.6l1.1,19.4h-3.5L221.6,26.7z"/>
		<path class="st4" d="M232.5,15.2v19.4H229V15.2H232.5z"/>
		<path class="st4" d="M236.5,30.8c1.2,0.7,2.9,1.2,4.7,1.2c2.3,0,3.5-1.1,3.5-2.6c0-1.5-1-2.3-3.5-3.2c-3.2-1.2-5.2-2.9-5.2-5.6
			c0-3.2,2.6-5.6,6.9-5.6c2.1,0,3.7,0.5,4.7,1l-0.9,2.9c-0.7-0.4-2-0.9-3.9-0.9c-2.2,0-3.2,1.2-3.2,2.3c0,1.5,1.1,2.2,3.7,3.2
			c3.4,1.3,5,3,5,5.8c0,3.1-2.4,5.8-7.4,5.8c-2,0-4.2-0.6-5.2-1.2L236.5,30.8z"/>
		<path class="st4" d="M251.5,30.8c1.2,0.7,2.9,1.2,4.7,1.2c2.3,0,3.5-1.1,3.5-2.6c0-1.5-1-2.3-3.5-3.2c-3.2-1.2-5.2-2.9-5.2-5.6
			c0-3.2,2.6-5.6,6.9-5.6c2.1,0,3.7,0.5,4.7,1l-0.9,2.9c-0.7-0.4-2-0.9-3.9-0.9c-2.2,0-3.2,1.2-3.2,2.3c0,1.5,1.1,2.2,3.7,3.2
			c3.4,1.3,5,3,5,5.8c0,3.1-2.4,5.8-7.4,5.8c-2,0-4.2-0.6-5.2-1.2L251.5,30.8z"/>
		<path class="st4" d="M270,15.2v19.4h-3.5V15.2H270z"/>
		<path class="st4" d="M291.3,24.7c0,6.5-3.9,10.2-9.3,10.2c-5.5,0-8.9-4.2-8.9-9.9c0-6,3.7-10.2,9.2-10.2
			C288,14.9,291.3,19.2,291.3,24.7z M276.8,25c0,3.9,2,7.1,5.4,7.1c3.4,0,5.4-3.2,5.4-7.2c0-3.7-1.8-7.1-5.4-7.1
			C278.7,17.8,276.8,21,276.8,25z"/>
		<path class="st4" d="M294.4,34.6V15.2h4l5,8.3c1.3,2.2,2.4,4.4,3.3,6.5h0.1c-0.2-2.6-0.3-5.1-0.3-8.1v-6.8h3.3v19.4h-3.7l-5.1-8.5
			c-1.2-2.1-2.5-4.5-3.5-6.7l-0.1,0c0.1,2.5,0.2,5.1,0.2,8.3v6.9H294.4z"/>
	</g>
	<g>
		<path class="st5" d="M72.1,47.9h1.8v12.7H80v1.5h-7.9V47.9z"/>
		<path class="st5" d="M88.7,57.4c0,2.5,1.6,3.6,3.5,3.6c1.3,0,2.1-0.2,2.8-0.5l0.3,1.3c-0.7,0.3-1.8,0.6-3.4,0.6
			c-3.2,0-5-2.1-5-5.2s1.8-5.5,4.8-5.5c3.3,0,4.2,2.9,4.2,4.8c0,0.4,0,0.7-0.1,0.9H88.7z M94.1,56.1c0-1.2-0.5-3-2.6-3
			c-1.9,0-2.7,1.7-2.9,3H94.1z"/>
		<path class="st5" d="M109.8,62.2l-0.1-1.3h-0.1c-0.6,0.8-1.7,1.5-3.1,1.5c-2.1,0-3.1-1.5-3.1-2.9c0-2.5,2.2-3.8,6.2-3.8v-0.2
			c0-0.8-0.2-2.4-2.3-2.4c-1,0-1.9,0.3-2.7,0.8l-0.4-1.2c0.8-0.5,2.1-0.9,3.4-0.9c3.1,0,3.9,2.1,3.9,4.2v3.8c0,0.9,0,1.8,0.2,2.5
			H109.8z M109.5,57c-2,0-4.3,0.3-4.3,2.3c0,1.2,0.8,1.8,1.8,1.8c1.3,0,2.2-0.8,2.5-1.7c0.1-0.2,0.1-0.4,0.1-0.6V57z"/>
		<path class="st5" d="M120.3,55.1c0-1.2,0-2.2-0.1-3.2h1.6l0.1,2h0.1c0.5-1.4,1.6-2.2,2.8-2.2c0.2,0,0.4,0,0.5,0.1v1.8
			c-0.2,0-0.4-0.1-0.6-0.1c-1.3,0-2.2,1-2.5,2.4c0,0.3-0.1,0.5-0.1,0.9v5.5h-1.8V55.1z"/>
		<path class="st5" d="M133.2,54.7c0-1.1,0-1.9-0.1-2.8h1.6l0.1,1.7h0c0.5-1,1.7-1.9,3.4-1.9c1.4,0,3.6,0.8,3.6,4.4v6.1H140v-5.9
			c0-1.7-0.6-3-2.4-3c-1.2,0-2.2,0.9-2.5,1.9c-0.1,0.2-0.1,0.5-0.1,0.9v6.2h-1.9V54.7z"/>
		<path class="st5" d="M152.9,49.1c0,0.6-0.4,1.1-1.2,1.1c-0.7,0-1.1-0.5-1.1-1.1c0-0.7,0.5-1.2,1.2-1.2
			C152.5,47.9,152.9,48.4,152.9,49.1z M150.9,62.2V51.9h1.9v10.2H150.9z"/>
		<path class="st5" d="M161.7,54.7c0-1.1,0-1.9-0.1-2.8h1.6l0.1,1.7h0c0.5-1,1.7-1.9,3.4-1.9c1.4,0,3.6,0.8,3.6,4.4v6.1h-1.9v-5.9
			c0-1.7-0.6-3-2.4-3c-1.2,0-2.2,0.9-2.5,1.9c-0.1,0.2-0.1,0.5-0.1,0.9v6.2h-1.9V54.7z"/>
		<path class="st5" d="M188.2,51.9c0,0.7-0.1,1.6-0.1,2.8v5.9c0,2.3-0.5,3.8-1.5,4.7c-1,0.9-2.4,1.2-3.7,1.2c-1.2,0-2.6-0.3-3.4-0.8
			l0.5-1.4c0.7,0.4,1.7,0.8,3,0.8c1.9,0,3.3-1,3.3-3.6v-1.1h0c-0.6,1-1.7,1.7-3.3,1.7c-2.5,0-4.4-2.2-4.4-5c0-3.5,2.3-5.4,4.6-5.4
			c1.8,0,2.7,0.9,3.2,1.8h0l0.1-1.5H188.2z M186.3,56c0-0.3,0-0.6-0.1-0.8c-0.3-1.1-1.2-2-2.6-2c-1.8,0-3,1.5-3,3.9c0,2,1,3.7,3,3.7
			c1.1,0,2.2-0.7,2.6-1.9c0.1-0.3,0.1-0.7,0.1-1V56z"/>
		<path class="st5" d="M207.6,48.1c0.9-0.1,2.1-0.3,3.5-0.3c1.8,0,3.2,0.4,4,1.2c0.8,0.7,1.2,1.7,1.2,3c0,1.3-0.4,2.3-1.1,3
			c-1,1-2.6,1.6-4.4,1.6c-0.5,0-1.1,0-1.5-0.1v5.7h-1.8V48.1z M209.4,55c0.4,0.1,0.9,0.1,1.5,0.1c2.2,0,3.6-1.1,3.6-3
			c0-1.9-1.3-2.8-3.4-2.8c-0.8,0-1.4,0.1-1.7,0.1V55z"/>
		<path class="st5" d="M224.6,47.2h1.9v15h-1.9V47.2z"/>
		<path class="st5" d="M241.2,62.2l-0.1-1.3H241c-0.6,0.8-1.7,1.5-3.1,1.5c-2.1,0-3.1-1.5-3.1-2.9c0-2.5,2.2-3.8,6.2-3.8v-0.2
			c0-0.8-0.2-2.4-2.3-2.4c-1,0-1.9,0.3-2.7,0.8l-0.4-1.2c0.8-0.5,2.1-0.9,3.4-0.9c3.1,0,3.9,2.1,3.9,4.2v3.8c0,0.9,0,1.8,0.2,2.5
			H241.2z M240.9,57c-2,0-4.3,0.3-4.3,2.3c0,1.2,0.8,1.8,1.8,1.8c1.3,0,2.2-0.8,2.5-1.7c0.1-0.2,0.1-0.4,0.1-0.6V57z"/>
		<path class="st5" d="M253.8,49v2.9h2.7v1.4h-2.7v5.5c0,1.3,0.4,2,1.4,2c0.5,0,0.8-0.1,1.1-0.1l0.1,1.4c-0.4,0.1-0.9,0.3-1.7,0.3
			c-0.9,0-1.6-0.3-2-0.8c-0.5-0.5-0.7-1.5-0.7-2.7v-5.6h-1.6v-1.4h1.6v-2.5L253.8,49z"/>
		<path class="st5" d="M273.6,57c0,3.8-2.6,5.4-5.1,5.4c-2.8,0-4.9-2-4.9-5.3c0-3.4,2.2-5.4,5.1-5.4C271.6,51.7,273.6,53.9,273.6,57
			z M265.5,57.1c0,2.2,1.3,3.9,3.1,3.9c1.8,0,3.1-1.7,3.1-4c0-1.7-0.9-3.9-3.1-3.9S265.5,55.1,265.5,57.1z"/>
		<path class="st5" d="M281.9,55.1c0-1.2,0-2.2-0.1-3.2h1.6l0.1,2h0.1c0.5-1.4,1.6-2.2,2.8-2.2c0.2,0,0.4,0,0.5,0.1v1.8
			c-0.2,0-0.4-0.1-0.6-0.1c-1.3,0-2.2,1-2.5,2.4c0,0.3-0.1,0.5-0.1,0.9v5.5h-1.8V55.1z"/>
		<path class="st5" d="M294.8,54.7c0-1.1,0-1.9-0.1-2.8h1.6l0.1,1.6h0.1c0.6-1,1.5-1.9,3.2-1.9c1.4,0,2.5,0.8,2.9,2.1h0
			c0.3-0.6,0.7-1,1.1-1.3c0.6-0.5,1.3-0.7,2.3-0.7c1.4,0,3.4,0.9,3.4,4.4v6h-1.8v-5.8c0-2-0.7-3.2-2.2-3.2c-1.1,0-1.9,0.8-2.2,1.7
			c-0.1,0.3-0.1,0.6-0.1,0.9v6.3h-1.8v-6.1c0-1.6-0.7-2.8-2.1-2.8c-1.2,0-2,0.9-2.3,1.9c-0.1,0.3-0.1,0.6-0.1,0.9v6.2h-1.8V54.7z"/>
	</g>
</g>
</svg>
